<mxfile host="app.diagrams.net" modified="2023-03-20T01:41:32.765Z" agent="5.0 (Windows NT 10.0; Win64; x64) AppleWebKit/537.36 (KHTML, like Gecko) Chrome/101.0.0.0 Safari/537.36" etag="Yu0LPi-yoHrkdZhPF6KP" version="21.0.8" type="github">
  <diagram id="C5RBs43oDa-KdzZeNtuy" name="Page-1">
    <mxGraphModel dx="1434" dy="796" grid="1" gridSize="10" guides="1" tooltips="1" connect="1" arrows="1" fold="1" page="1" pageScale="1" pageWidth="827" pageHeight="1169" math="0" shadow="0">
      <root>
        <mxCell id="WIyWlLk6GJQsqaUBKTNV-0" />
        <mxCell id="WIyWlLk6GJQsqaUBKTNV-1" parent="WIyWlLk6GJQsqaUBKTNV-0" />
        <mxCell id="SKyKurGn0L72KR7PtrIP-13" style="edgeStyle=orthogonalEdgeStyle;rounded=0;orthogonalLoop=1;jettySize=auto;html=1;" edge="1" parent="WIyWlLk6GJQsqaUBKTNV-1" source="SKyKurGn0L72KR7PtrIP-14" target="SKyKurGn0L72KR7PtrIP-16">
          <mxGeometry relative="1" as="geometry" />
        </mxCell>
        <mxCell id="SKyKurGn0L72KR7PtrIP-14" value="开始" style="ellipse;whiteSpace=wrap;html=1;" vertex="1" parent="WIyWlLk6GJQsqaUBKTNV-1">
          <mxGeometry x="240" y="110" width="70" height="50" as="geometry" />
        </mxCell>
        <mxCell id="SKyKurGn0L72KR7PtrIP-15" style="edgeStyle=orthogonalEdgeStyle;rounded=0;orthogonalLoop=1;jettySize=auto;html=1;entryX=0.5;entryY=0;entryDx=0;entryDy=0;" edge="1" parent="WIyWlLk6GJQsqaUBKTNV-1" source="SKyKurGn0L72KR7PtrIP-16" target="SKyKurGn0L72KR7PtrIP-18">
          <mxGeometry relative="1" as="geometry" />
        </mxCell>
        <mxCell id="SKyKurGn0L72KR7PtrIP-16" value="遍历待入库订单列表" style="rounded=1;whiteSpace=wrap;html=1;" vertex="1" parent="WIyWlLk6GJQsqaUBKTNV-1">
          <mxGeometry x="222.5" y="190" width="105" height="40" as="geometry" />
        </mxCell>
        <mxCell id="SKyKurGn0L72KR7PtrIP-17" style="edgeStyle=orthogonalEdgeStyle;rounded=0;orthogonalLoop=1;jettySize=auto;html=1;" edge="1" parent="WIyWlLk6GJQsqaUBKTNV-1" source="SKyKurGn0L72KR7PtrIP-18" target="SKyKurGn0L72KR7PtrIP-20">
          <mxGeometry relative="1" as="geometry" />
        </mxCell>
        <mxCell id="SKyKurGn0L72KR7PtrIP-18" value="从redis获取并加1计数值" style="rounded=1;whiteSpace=wrap;html=1;" vertex="1" parent="WIyWlLk6GJQsqaUBKTNV-1">
          <mxGeometry x="222.5" y="280" width="105" height="40" as="geometry" />
        </mxCell>
        <mxCell id="SKyKurGn0L72KR7PtrIP-27" style="edgeStyle=orthogonalEdgeStyle;rounded=0;orthogonalLoop=1;jettySize=auto;html=1;" edge="1" parent="WIyWlLk6GJQsqaUBKTNV-1" source="SKyKurGn0L72KR7PtrIP-20" target="SKyKurGn0L72KR7PtrIP-26">
          <mxGeometry relative="1" as="geometry" />
        </mxCell>
        <mxCell id="SKyKurGn0L72KR7PtrIP-20" value="对20取模得到当前订单处于循环内的第几单" style="rounded=1;whiteSpace=wrap;html=1;" vertex="1" parent="WIyWlLk6GJQsqaUBKTNV-1">
          <mxGeometry x="206.25" y="370" width="137.5" height="40" as="geometry" />
        </mxCell>
        <mxCell id="SKyKurGn0L72KR7PtrIP-23" style="edgeStyle=orthogonalEdgeStyle;rounded=0;orthogonalLoop=1;jettySize=auto;html=1;" edge="1" parent="WIyWlLk6GJQsqaUBKTNV-1" source="SKyKurGn0L72KR7PtrIP-24" target="SKyKurGn0L72KR7PtrIP-25">
          <mxGeometry relative="1" as="geometry" />
        </mxCell>
        <mxCell id="SKyKurGn0L72KR7PtrIP-24" value="订单入库" style="rounded=1;whiteSpace=wrap;html=1;" vertex="1" parent="WIyWlLk6GJQsqaUBKTNV-1">
          <mxGeometry x="222.5" y="585" width="105" height="40" as="geometry" />
        </mxCell>
        <mxCell id="SKyKurGn0L72KR7PtrIP-25" value="结束" style="ellipse;whiteSpace=wrap;html=1;" vertex="1" parent="WIyWlLk6GJQsqaUBKTNV-1">
          <mxGeometry x="240" y="665" width="70" height="50" as="geometry" />
        </mxCell>
        <mxCell id="SKyKurGn0L72KR7PtrIP-28" value="不扣量" style="edgeStyle=orthogonalEdgeStyle;rounded=0;orthogonalLoop=1;jettySize=auto;html=1;" edge="1" parent="WIyWlLk6GJQsqaUBKTNV-1" source="SKyKurGn0L72KR7PtrIP-26" target="SKyKurGn0L72KR7PtrIP-24">
          <mxGeometry relative="1" as="geometry" />
        </mxCell>
        <mxCell id="SKyKurGn0L72KR7PtrIP-30" style="edgeStyle=orthogonalEdgeStyle;rounded=0;orthogonalLoop=1;jettySize=auto;html=1;" edge="1" parent="WIyWlLk6GJQsqaUBKTNV-1" source="SKyKurGn0L72KR7PtrIP-26" target="SKyKurGn0L72KR7PtrIP-29">
          <mxGeometry relative="1" as="geometry" />
        </mxCell>
        <mxCell id="SKyKurGn0L72KR7PtrIP-26" value="根据配置判断是否扣量订单" style="rhombus;whiteSpace=wrap;html=1;" vertex="1" parent="WIyWlLk6GJQsqaUBKTNV-1">
          <mxGeometry x="235" y="450" width="80" height="80" as="geometry" />
        </mxCell>
        <mxCell id="SKyKurGn0L72KR7PtrIP-31" style="edgeStyle=orthogonalEdgeStyle;rounded=0;orthogonalLoop=1;jettySize=auto;html=1;entryX=1;entryY=0.5;entryDx=0;entryDy=0;" edge="1" parent="WIyWlLk6GJQsqaUBKTNV-1" source="SKyKurGn0L72KR7PtrIP-29" target="SKyKurGn0L72KR7PtrIP-24">
          <mxGeometry relative="1" as="geometry">
            <Array as="points">
              <mxPoint x="433" y="605" />
            </Array>
          </mxGeometry>
        </mxCell>
        <mxCell id="SKyKurGn0L72KR7PtrIP-29" value="将订单标志为扣量" style="rounded=1;whiteSpace=wrap;html=1;" vertex="1" parent="WIyWlLk6GJQsqaUBKTNV-1">
          <mxGeometry x="380" y="470" width="105" height="40" as="geometry" />
        </mxCell>
      </root>
    </mxGraphModel>
  </diagram>
</mxfile>
